<?xml version="1.0" encoding="iso-8859-1"?>
<!-- Uploaded to: SVG Repo, www.svgrepo.com, Generator: SVG Repo Mixer Tools -->
<svg height="800px" width="800px" version="1.1" id="Layer_1" xmlns="http://www.w3.org/2000/svg" xmlns:xlink="http://www.w3.org/1999/xlink" 
	 viewBox="0 0 496.8 496.8" xml:space="preserve">
<path style="fill:#EAC113;" d="M144,428.4c0,6.4-5.6,12-12,12l0,0c-6.4,0-12-5.6-12-12v-360c0-6.4,5.6-12,12-12l0,0
	c6.4,0,12,5.6,12,12V428.4z"/>
<path style="fill:#E8A615;" d="M132,56.4L132,56.4c6.4,0,12,4.8,12,11.2v361.6c0,6.4-5.6,11.2-12,11.2l0,0"/>
<path style="fill:#EAC113;" d="M64,428.4c0,6.4-5.6,12-12,12l0,0c-6.4,0-12-5.6-12-12v-360c0-6.4,5.6-12,12-12l0,0
	c6.4,0,12,5.6,12,12V428.4z"/>
<path style="fill:#E8A615;" d="M52,56.4L52,56.4c6.4,0,12,4.8,12,11.2v361.6c0,6.4-5.6,11.2-12,11.2l0,0"/>
<path style="fill:#EAC113;" d="M224,428.4c0,6.4-5.6,12-12,12l0,0c-6.4,0-12-5.6-12-12v-360c0-6.4,5.6-12,12-12l0,0
	c6.4,0,12,5.6,12,12V428.4z"/>
<path style="fill:#E8A615;" d="M212,56.4L212,56.4c6.4,0,12,4.8,12,11.2v361.6c0,6.4-5.6,11.2-12,11.2l0,0"/>
<path style="fill:#EAC113;" d="M304,428.4c0,6.4-5.6,12-12,12l0,0c-6.4,0-12-5.6-12-12v-360c0-6.4,5.6-12,12-12l0,0
	c6.4,0,12,5.6,12,12V428.4z"/>
<path style="fill:#E8A615;" d="M292,56.4L292,56.4c6.4,0,12,4.8,12,11.2v361.6c0,6.4-5.6,11.2-12,11.2l0,0"/>
<path style="fill:#EAC113;" d="M384,428.4c0,6.4-5.6,12-12,12l0,0c-6.4,0-12-5.6-12-12v-360c0-6.4,5.6-12,12-12l0,0
	c6.4,0,12,5.6,12,12V428.4z"/>
<path style="fill:#E8A615;" d="M372,56.4L372,56.4c6.4,0,12,4.8,12,11.2v361.6c0,6.4-5.6,11.2-12,11.2l0,0"/>
<path style="fill:#EAC113;" d="M464,428.4c0,6.4-5.6,12-12,12l0,0c-6.4,0-12-5.6-12-12v-360c0-6.4,5.6-12,12-12l0,0
	c6.4,0,12,5.6,12,12V428.4z"/>
<path style="fill:#E8A615;" d="M452,56.4L452,56.4c6.4,0,12,4.8,12,11.2v361.6c0,6.4-5.6,11.2-12,11.2l0,0"/>
<path style="fill:#62C106;" d="M496,366.8c0,13.6-11.2,25.6-25.6,25.6H25.6C11.2,392.4,0,381.2,0,366.8V130
	c0-14.4,11.2-25.6,25.6-25.6h445.6c13.6,0,25.6,11.2,25.6,25.6v236.8H496z"/>
<path style="fill:#56B502;" d="M0,130.8c0-13.6,11.2-26.4,25.6-26.4h445.6c13.6,0,25.6,13.6,25.6,28v235.2
	c0,13.6-11.2,25.6-25.6,25.6"/>
<path style="fill:#51A500;" d="M464,335.6c0,10.4-10.4,16.8-20.8,16.8H52.8c-10.4,0-20.8-5.6-20.8-16.8V161.2
	c0-11.2,10.4-16.8,20.8-16.8h390.4c10.4,0,20.8,5.6,20.8,16.8L464,335.6L464,335.6z"/>
<path style="fill:#4C9300;" d="M32,161.2c0-11.2,10.4-16.8,20.8-16.8h390.4c10.4,0,20.8,5.6,20.8,16.8v175.2
	c0,10.4-10.4,16.8-20.8,16.8"/>
<g>
	<polygon style="fill:#62C106;" points="168,320.4 104,320.4 104,176.4 72,176.4 72,168.4 112,168.4 112,312.4 160,312.4 160,256.4 
		232,256.4 232,264.4 168,264.4 	"/>
	<circle style="fill:#62C106;" cx="67.2" cy="174.8" r="11.2"/>
	<path style="fill:#62C106;" d="M244.8,264.4c0,6.4-4.8,11.2-11.2,11.2s-11.2-4.8-11.2-11.2s4.8-11.2,11.2-11.2
		S244.8,258,244.8,264.4z"/>
</g>
<polygon style="fill:#56B502;" points="376,160.4 432,160.4 432,304.4 472,304.4 472,312.4 424,312.4 424,168.4 384,168.4 
	384,224.4 312,224.4 312,216.4 376,216.4 "/>
<g>
	<circle style="fill:#62C106;" cx="307.2" cy="223.6" r="11.2"/>
	<polygon style="fill:#62C106;" points="224,160.4 280,160.4 280,304.4 312,304.4 312,312.4 272,312.4 272,168.4 232,168.4 
		232,224.4 152,224.4 152,216.4 224,216.4 	"/>
	<circle style="fill:#62C106;" cx="320.8" cy="312.4" r="11.2"/>
	<circle style="fill:#62C106;" cx="154.4" cy="223.6" r="11.2"/>
</g>
</svg>