<?xml version="1.0" encoding="utf-8"?>
<!-- Uploaded to: SVG Repo, www.svgrepo.com, Generator: SVG Repo Mixer Tools -->
<!DOCTYPE svg PUBLIC "-//W3C//DTD SVG 1.1//EN" "http://www.w3.org/Graphics/SVG/1.1/DTD/svg11.dtd">
<svg xmlns="http://www.w3.org/2000/svg" xmlns:xlink="http://www.w3.org/1999/xlink" version="1.1" id="Layer_1"  width="512" height="512" viewBox="0 0 512 512" enable-background="new 0 0 512 512" xml:space="preserve">
<g id="cooler">
	<g>
		<rect x="21.328" y="21.336" fill="#434A54" width="469.328" height="469.336"/>
	</g>
	<path fill="#AAB2BC" d="M458.656,64c0,5.898-4.781,10.672-10.656,10.672c-5.906,0-10.672-4.773-10.672-10.672   c0-5.883,4.766-10.664,10.672-10.664C453.875,53.336,458.656,58.117,458.656,64z"/>
	<path fill="#AAB2BC" d="M74.656,64c0,5.898-4.781,10.672-10.656,10.672c-5.906,0-10.672-4.773-10.672-10.672   c0-5.883,4.766-10.664,10.672-10.664C69.875,53.336,74.656,58.117,74.656,64z"/>
	<path fill="#AAB2BC" d="M74.656,448c0,5.891-4.781,10.672-10.656,10.672c-5.906,0-10.672-4.781-10.672-10.672   c0-5.875,4.766-10.656,10.672-10.656C69.875,437.344,74.656,442.125,74.656,448z"/>
	<path fill="#AAB2BC" d="M458.656,448c0,5.891-4.781,10.672-10.656,10.672c-5.906,0-10.672-4.781-10.672-10.672   c0-5.875,4.766-10.656,10.672-10.656C453.875,437.344,458.656,442.125,458.656,448z"/>
	<path fill="#E6E9ED" d="M256,501.344c-33.125,0-65.266-6.5-95.5-19.281c-29.219-12.359-55.453-30.047-77.984-52.578   c-22.531-22.547-40.219-48.766-52.578-77.984c-12.797-30.25-19.281-62.375-19.281-95.5c0-33.117,6.484-65.25,19.281-95.484   c12.359-29.219,30.047-55.453,52.578-77.992c22.531-22.531,48.766-40.219,77.984-52.578c30.234-12.789,62.375-19.273,95.5-19.273   c33.109,0,65.25,6.484,95.484,19.273c29.219,12.359,55.453,30.047,77.984,52.578c22.531,22.539,40.219,48.773,52.578,77.992   c12.797,30.234,19.281,62.367,19.281,95.484c0,33.125-6.484,65.25-19.281,95.5c-12.359,29.219-30.047,55.438-52.578,77.984   c-22.531,22.531-48.766,40.219-77.984,52.578C321.25,494.844,289.109,501.344,256,501.344z"/>
	<path fill="#656D78" d="M256,0C114.609,0,0,114.617,0,256c0,141.391,114.609,256,256,256c141.375,0,256-114.609,256-256   C512,114.617,397.375,0,256,0z M421.922,421.938c-21.547,21.562-46.656,38.484-74.594,50.312   c-28.922,12.219-59.641,18.422-91.328,18.422c-31.703,0-62.422-6.203-91.344-18.422c-27.938-11.828-53.047-28.75-74.594-50.312   C68.5,400.375,51.578,375.281,39.75,347.344C27.531,318.422,21.328,287.688,21.328,256s6.203-62.414,18.422-91.328   c11.828-27.945,28.75-53.047,50.312-74.602c21.547-21.562,46.656-38.484,74.594-50.297C193.578,27.539,224.297,21.336,256,21.336   c31.688,0,62.406,6.203,91.328,18.438c27.938,11.812,53.047,28.734,74.594,50.297c21.562,21.555,38.484,46.656,50.297,74.602   c12.234,28.914,18.438,59.641,18.438,91.328s-6.203,62.422-18.438,91.344C460.406,375.281,443.484,400.375,421.922,421.938z"/>
	<g>
		<path fill="#48CFAD" d="M255.875,458.688c-0.594,0-1.188-0.016-1.781-0.016c-11.078-28.359-20.312-65.766-26.844-108.766    l-6.75-44.594l-13.938,42.891c-12.125,37.312-18.875,73.578-22.391,97.359c-21.016-7.969-40.453-19.312-57.922-33.875    c-18.984-15.812-34.688-34.625-46.75-55.953c19.031-23.797,46.812-50.516,80.812-77.672l35.234-28.141l-44.109,9.383    c-38.359,8.148-73.125,20.43-95.469,29.258c-0.641-3.906-1.172-7.844-1.578-11.781c-2.375-23.109-0.844-46.18,4.594-68.547    c4.703-19.422,12.25-37.961,22.438-55.203c30.109,4.586,67.125,15.281,107.625,31.141l41.984,16.438l-30.172-33.508    c-26.25-29.148-54.281-53.125-73.109-68.062c30.672-25.156,67.562-40.516,107.453-44.633c6.922-0.711,13.953-1.078,20.922-1.078    c0.594,0,1.172,0.008,1.766,0.008c11.078,28.367,20.328,65.773,26.844,108.773l6.75,44.586l13.938-42.891    c12.109-37.312,18.859-73.578,22.391-97.367c21.016,7.969,40.453,19.328,57.922,33.875c18.984,15.82,34.688,34.625,46.75,55.961    c-19.031,23.797-46.812,50.516-80.797,77.664l-35.25,28.148l44.125-9.383c38.344-8.148,73.109-20.43,95.453-29.266    c0.641,3.93,1.172,7.859,1.578,11.773c2.375,23.125,0.844,46.195-4.594,68.57c-4.703,19.422-12.25,37.969-22.438,55.188    c-30.109-4.578-67.125-15.281-107.625-31.125l-41.984-16.438l30.172,33.5c26.25,29.156,54.281,53.125,73.109,68.062    c-30.672,25.156-67.562,40.516-107.453,44.625C269.875,458.312,262.828,458.688,255.875,458.688z"/>
		<path fill="#37BC9B" d="M468.203,234.125c-0.891-8.68-2.312-17.172-4.188-25.469c-21.266,8.953-60.906,24.102-105.672,33.617    c28.781-23,63.047-53.547,86.844-84.953C418.875,106.906,373.219,68.922,319,52.141c-2.875,22.883-9.578,64.812-23.719,108.367    c-5.531-36.43-14.844-81.352-30.141-117.656c-2.984-0.125-5.984-0.188-9.016-0.188c-7.266,0-14.625,0.367-22.016,1.133    c-47.859,4.938-90.391,25.336-123.125,55.727c18.375,13.945,51.312,40.703,81.953,74.711    c-34.312-13.43-77.875-27.82-116.953-32.727c-24.922,39.133-37.328,86.641-32.203,136.383c0.906,8.672,2.312,17.172,4.188,25.453    c21.266-8.938,60.906-24.094,105.688-33.609c-28.797,23-63.062,53.547-86.859,84.953c26.312,50.406,71.969,88.406,126.188,105.188    c2.875-22.891,9.578-64.812,23.734-108.375c5.516,36.438,14.828,81.344,30.125,117.656c3,0.125,6,0.188,9.031,0.188    c7.266,0,14.609-0.375,22-1.125c47.859-4.938,90.391-25.344,123.125-55.734c-18.391-13.953-51.312-40.703-81.938-74.703    C353.359,351.203,396.922,365.594,436,370.5C460.922,331.375,473.328,283.859,468.203,234.125z M326.828,317.906l-83.969-32.875    l60.344,67.016c22.141,24.609,45.516,45.562,63.781,60.672c-9.688,6.875-19.969,12.812-30.781,17.781    c-19.062,8.781-39.422,14.312-60.516,16.5c-4.703,0.469-9.469,0.781-14.234,0.938c-9.656-26.719-17.766-60.812-23.656-99.625    l-13.516-89.188l-27.859,85.781c-10.234,31.484-16.703,62.219-20.656,85.594c-15.281-7.047-29.562-16.062-42.688-27    c-16.109-13.438-29.719-29.125-40.594-46.766c18.297-21.734,43.766-45.797,74.484-70.328l70.469-56.297l-88.219,18.758    c-32.375,6.883-62.203,16.633-84.406,24.883c-1.984-21.25-0.453-42.438,4.531-63c3.891-16.055,9.828-31.461,17.688-45.977    c27.969,4.984,61.547,15.008,98.125,29.328l83.984,32.883l-60.359-67.023c-22.141-24.594-45.516-45.562-63.781-60.672    c9.688-6.867,19.969-12.82,30.781-17.789c19.062-8.766,39.422-14.312,60.516-16.484c4.703-0.484,9.469-0.797,14.234-0.938    c9.656,26.711,17.766,60.797,23.656,99.625l13.5,89.18l27.875-85.781c10.219-31.477,16.703-62.211,20.656-85.586    c15.281,7.039,29.562,16.07,42.688,26.992c16.109,13.43,29.719,29.117,40.594,46.766c-18.297,21.727-43.781,45.805-74.484,70.328    l-70.469,56.305l88.234-18.766c32.359-6.883,62.188-16.633,84.391-24.891c1.984,21.258,0.453,42.438-4.531,63    c-3.891,16.062-9.828,31.469-17.688,46C396.984,342.25,363.406,332.219,326.828,317.906z"/>
	</g>
	<path fill="#E6E9ED" d="M256,330.672c-41.172,0-74.672-33.5-74.672-74.672c0-41.164,33.5-74.664,74.672-74.664   c41.156,0,74.656,33.5,74.656,74.664C330.656,297.172,297.156,330.672,256,330.672z"/>
	<path fill="#37BC9B" d="M256,170.672c-47.141,0-85.344,38.203-85.344,85.328s38.203,85.344,85.344,85.344   c47.125,0,85.328-38.219,85.328-85.344S303.125,170.672,256,170.672z M256,320c-35.297,0-64-28.719-64-64   c0-35.289,28.703-63.992,64-63.992c35.281,0,63.984,28.703,63.984,63.992C319.984,291.281,291.281,320,256,320z"/>
	<path d="M266.656,256c0,5.898-4.781,10.672-10.656,10.672c-5.906,0-10.672-4.773-10.672-10.672c0-5.883,4.766-10.664,10.672-10.664   C261.875,245.336,266.656,250.117,266.656,256z"/>
</g>
</svg>