<?xml version="1.0" encoding="utf-8"?>
<!-- Uploaded to: SVG Repo, www.svgrepo.com, Generator: SVG Repo Mixer Tools -->
<!DOCTYPE svg PUBLIC "-//W3C//DTD SVG 1.1//EN" "http://www.w3.org/Graphics/SVG/1.1/DTD/svg11.dtd">
<svg xmlns="http://www.w3.org/2000/svg" xmlns:xlink="http://www.w3.org/1999/xlink" version="1.1" id="Layer_1"  width="512" height="512" viewBox="0 0 512 512" enable-background="new 0 0 512 512" xml:space="preserve">
<g id="repository">
	<g>
		<g>
			<polygon fill="#434A54" points="288,416 288,322.672 224,322.672 224,416 0,416 0,480 224,480 288,480 512,480 512,416    "/>
		</g>
		<rect x="224" y="344.703" fill="#CCD1D9" width="64" height="135.297"/>
		<rect x="170.664" y="416" fill="#CCD1D9" width="170.68" height="64"/>
		<rect x="245.336" y="373.344" fill="#E6E9ED" width="21.328" height="74.656"/>
		<rect x="170.664" y="437.344" fill="#E6E9ED" width="170.68" height="21.328"/>
	</g>
	<g>
		<polygon fill="#F6BB42" points="448,309.344 64,309.344 64,74.672 85.336,74.672 85.336,32 213.336,32 234.664,74.672 448,74.672       "/>
	</g>
	<g>
		<polygon fill="#FFCE54" points="448,373.344 64,373.344 42.664,117.344 469.344,117.344   "/>
	</g>
</g>
</svg>