<?xml version="1.0" encoding="utf-8"?>
<!-- Uploaded to: SVG Repo, www.svgrepo.com, Generator: SVG Repo Mixer Tools -->
<!DOCTYPE svg PUBLIC "-//W3C//DTD SVG 1.1//EN" "http://www.w3.org/Graphics/SVG/1.1/DTD/svg11.dtd">
<svg xmlns="http://www.w3.org/2000/svg" xmlns:xlink="http://www.w3.org/1999/xlink" version="1.1" id="Layer_1"  width="512" height="512" viewBox="0 0 512 512" enable-background="new 0 0 512 512" xml:space="preserve">
<g id="video_card">
	<g>
		<rect x="85.344" y="330.656" fill="#A0D468" width="234.844" height="53.344"/>
	</g>
	<path fill="#8CC153" d="M138.672,373.344c-5.891,0-10.672,4.766-10.672,10.656h21.344   C149.344,378.109,144.562,373.344,138.672,373.344z"/>
	<path fill="#8CC153" d="M181.344,373.344c-5.891,0-10.672,4.766-10.672,10.656H192C192,378.109,187.234,373.344,181.344,373.344z"/>
	<path fill="#8CC153" d="M224,373.344c-5.891,0-10.656,4.766-10.656,10.656h21.328C234.672,378.109,229.891,373.344,224,373.344z"/>
	<path fill="#8CC153" d="M266.672,373.344c-5.891,0-10.672,4.766-10.672,10.656h21.344   C277.344,378.109,272.562,373.344,266.672,373.344z"/>
	<path fill="#CCD1D9" d="M341.531,352c0,5.891-4.781,10.656-10.672,10.656s-10.672-4.766-10.672-10.656s4.781-10.656,10.672-10.656   S341.531,346.109,341.531,352z"/>
	<g>
		<polygon fill="#E6E9ED" points="448,330.656 21.344,330.656 0,330.656 0,117.336 448,117.336   "/>
	</g>
	<g>
		<path fill="#434A54" d="M21.344,160c-5.891,0-10.672,4.773-10.672,10.664v32c0,5.891,4.781,10.672,10.672,10.672    S32,208.555,32,202.664v-32C32,164.773,27.234,160,21.344,160z"/>
		<path fill="#434A54" d="M21.344,234.664c-5.891,0-10.672,4.781-10.672,10.672v32.008l0,0c0,5.875,4.781,10.656,10.672,10.656    S32,283.219,32,277.344l0,0v-32.008C32,239.445,27.234,234.664,21.344,234.664z"/>
	</g>
	<path fill="#656D78" d="M10.672,106.664C4.781,106.664,0,111.445,0,117.336v288.008C0,411.219,4.781,416,10.672,416   s10.672-4.781,10.672-10.656V117.336C21.344,111.445,16.562,106.664,10.672,106.664z"/>
	<g>
		<rect x="64" y="96" fill="#FC6E51" width="448" height="256"/>
	</g>
	<path fill="#E6E9ED" d="M170.672,149.336c0,5.891-4.781,10.664-10.672,10.664s-10.656-4.773-10.656-10.664   s4.766-10.672,10.656-10.672S170.672,143.445,170.672,149.336z"/>
	<path fill="#CCD1D9" d="M74.672,181.336C74.672,187.227,69.891,192,64,192s-10.656-4.773-10.656-10.664S58.109,170.664,64,170.664   S74.672,175.445,74.672,181.336z"/>
	<path fill="#CCD1D9" d="M74.672,224c0,5.891-4.781,10.664-10.672,10.664S53.344,229.891,53.344,224S58.109,213.336,64,213.336   S74.672,218.109,74.672,224z"/>
	<path fill="#CCD1D9" d="M74.672,266.672c0,5.891-4.781,10.672-10.672,10.672s-10.656-4.781-10.656-10.672S58.109,256,64,256   S74.672,260.781,74.672,266.672z"/>
	<path fill="#E6E9ED" d="M384,298.656c0,5.906-4.766,10.688-10.656,10.688s-10.672-4.781-10.672-10.688   c0-5.875,4.781-10.656,10.672-10.656S384,292.781,384,298.656z"/>
	<g>
		<path fill="#656D78" d="M352,224c0,47.133-38.203,85.344-85.328,85.344S181.344,271.133,181.344,224    c0-47.125,38.203-85.336,85.328-85.336S352,176.875,352,224z"/>
	</g>
	<path fill="#434A54" d="M288.422,205.68c5.438-6.406,12.703-13.289,21.609-20.375c8.203-6.531,16.312-12.062,22.234-15.883   c-4.703-5.641-10.109-10.672-16.109-14.945c-5.625,3.758-12.328,8.508-19.188,13.961c-11.797,9.367-21.094,18.469-27.875,27.234   c-0.688-8.383-0.406-18.391,0.875-29.695c1.188-10.422,3-20.055,4.5-26.953c-2.578-0.227-5.172-0.359-7.797-0.359   c-4.828,0-9.562,0.414-14.172,1.18c-1.312,6.633-2.703,14.734-3.688,23.438c-1.719,14.977-1.875,27.984-0.469,38.977   c-6.406-5.445-13.281-12.719-20.375-21.617c-6.531-8.211-12.047-16.312-15.875-22.234c-5.641,4.703-10.672,10.117-14.953,16.109   c3.766,5.617,8.516,12.328,13.969,19.188c9.375,11.797,18.469,21.102,27.234,27.875c-8.391,0.688-18.391,0.406-29.703-0.875   c-10.422-1.18-20.047-3.008-26.953-4.492c-0.219,2.57-0.344,5.164-0.344,7.789c0,4.828,0.406,9.562,1.172,14.172   c6.641,1.312,14.734,2.695,23.438,3.695c8.219,0.945,15.844,1.414,22.859,1.414c5.781,0,11.156-0.328,16.125-0.961   c-5.453,6.414-12.719,13.289-21.625,20.375c-8.219,6.539-16.312,12.055-22.234,15.883c4.703,5.641,10.109,10.672,16.109,14.953   c5.625-3.766,12.328-8.516,19.188-13.969c11.797-9.367,21.094-18.461,27.875-27.234c0.688,8.383,0.406,18.391-0.875,29.703   c-1.188,10.422-3,20.062-4.5,26.938c2.578,0.25,5.172,0.375,7.797,0.375c4.828,0,9.562-0.406,14.172-1.188   c1.312-6.625,2.688-14.734,3.688-23.438c1.719-14.969,1.875-27.984,0.453-38.977c6.422,5.445,13.297,12.719,20.391,21.617   c6.531,8.203,12.047,16.312,15.875,22.234c5.641-4.703,10.672-10.125,14.953-16.109c-3.766-5.617-8.516-12.32-13.969-19.188   c-9.375-11.797-18.469-21.102-27.234-27.875c8.391-0.688,18.391-0.406,29.688,0.875c10.438,1.188,20.062,3.008,26.953,4.492   c0.234-2.562,0.359-5.164,0.359-7.789c0-4.828-0.406-9.562-1.172-14.172c-6.641-1.312-14.734-2.695-23.438-3.695   C312.422,204.422,299.406,204.273,288.422,205.68z"/>
	<g>
		<path fill="#CCD1D9" d="M266.672,245.336c-11.766,0-21.328-9.57-21.328-21.336s9.562-21.328,21.328-21.328S288,212.234,288,224    S278.438,245.336,266.672,245.336z"/>
		<path fill="#E6E9ED" d="M266.672,192c-17.672,0-32,14.328-32,32s14.328,32,32,32s32-14.328,32-32S284.344,192,266.672,192z     M266.672,234.664c-5.875,0-10.672-4.781-10.672-10.664s4.797-10.664,10.672-10.664s10.672,4.781,10.672,10.664    S272.547,234.664,266.672,234.664z"/>
	</g>
	<path fill="#E9573F" d="M117.344,138.664c-5.891,0-10.672,4.781-10.672,10.672v149.32c0,5.906,4.781,10.688,10.672,10.688   S128,304.562,128,298.656v-149.32C128,143.445,123.234,138.664,117.344,138.664z"/>
	<g>
		<path fill="#E9573F" d="M416,138.664c-5.891,0-10.656,4.781-10.656,10.672v149.32c0,5.906,4.766,10.688,10.656,10.688    s10.672-4.781,10.672-10.688v-149.32C426.672,143.445,421.891,138.664,416,138.664z"/>
		<path fill="#E9573F" d="M458.672,138.664c-5.891,0-10.672,4.781-10.672,10.672v149.32c0,5.906,4.781,10.688,10.672,10.688    s10.672-4.781,10.672-10.688v-149.32C469.344,143.445,464.562,138.664,458.672,138.664z"/>
	</g>
	<path fill="#E9573F" d="M64,96v256c0,5.891,4.781,10.656,10.672,10.656S85.344,357.891,85.344,352V96H64z"/>
	<path fill="#434A54" d="M266.672,138.664c-47.125,0-85.328,38.211-85.328,85.336c0,47.133,38.203,85.344,85.328,85.344   S352,271.133,352,224C352,176.875,313.797,138.664,266.672,138.664z M266.672,288c-35.297,0-64-28.711-64-64s28.703-64,64-64   s64,28.711,64,64S301.969,288,266.672,288z"/>
</g>
</svg>