<?xml version="1.0" encoding="utf-8"?>
<!-- Uploaded to: SVG Repo, www.svgrepo.com, Generator: SVG Repo Mixer Tools -->
<!DOCTYPE svg PUBLIC "-//W3C//DTD SVG 1.1//EN" "http://www.w3.org/Graphics/SVG/1.1/DTD/svg11.dtd">
<svg xmlns="http://www.w3.org/2000/svg" xmlns:xlink="http://www.w3.org/1999/xlink" version="1.1" id="Layer_1"  width="512" height="512" viewBox="0 0 512 512" enable-background="new 0 0 512 512" xml:space="preserve">
<g id="hdmi">
	<g>
		<rect x="138.668" fill="#CCD1D9" width="234.68" height="234.664"/>
	</g>
	<g>
		<rect x="170.668" fill="#E6E9ED" width="170.68" height="128"/>
	</g>
	<polygon fill="#434A54" points="192.004,288 192.004,512 224.004,512 288.004,512 320.004,512 320.004,288  "/>
	<path fill="#AC92EB" d="M384.004,128h-256c-5.867,0-10.664,4.797-10.664,10.664V288c0,5.875,2.656,14.656,5.914,19.531   l30.836,46.25c3.25,4.891,5.914,13.688,5.914,19.562v21.312c0,5.875,4.805,10.688,10.664,10.688h170.68   c5.859,0,10.656-4.812,10.656-10.688v-21.312c0-5.875,2.656-14.672,5.906-19.562l30.844-46.25   c3.25-4.875,5.906-13.656,5.906-19.531V138.664C394.66,132.797,389.879,128,384.004,128z"/>
	<g>
		<path fill="#CCD1D9" d="M234.668,64H213.34c-5.891,0-10.672,4.773-10.672,10.664s4.781,10.672,10.672,10.672h21.328    c5.891,0,10.672-4.781,10.672-10.672S240.559,64,234.668,64z"/>
		<path fill="#CCD1D9" d="M298.66,64h-21.312c-5.898,0-10.68,4.773-10.68,10.664s4.781,10.672,10.68,10.672h21.312    c5.906,0,10.688-4.781,10.688-10.672S304.566,64,298.66,64z"/>
	</g>
	<path fill="#967ADC" d="M158.098,362.656c1.164,3.719,1.906,7.594,1.906,10.688V384h192v-10.656c0-3.094,0.734-6.969,1.906-10.688   H158.098z"/>
	<g>
		<path fill="#967ADC" d="M202.668,256h106.68c5.875,0,10.656-4.773,10.656-10.664s-4.781-10.672-10.656-10.672h-106.68    c-5.891,0-10.664,4.781-10.664,10.672S196.777,256,202.668,256z"/>
		<path fill="#967ADC" d="M309.348,277.344h-106.68c-5.891,0-10.664,4.766-10.664,10.656s4.773,10.656,10.664,10.656h106.68    c5.875,0,10.656-4.766,10.656-10.656S315.223,277.344,309.348,277.344z"/>
	</g>
</g>
</svg>