<?xml version="1.0" encoding="utf-8"?>
<!-- Uploaded to: SVG Repo, www.svgrepo.com, Generator: SVG Repo Mixer Tools -->
<!DOCTYPE svg PUBLIC "-//W3C//DTD SVG 1.1//EN" "http://www.w3.org/Graphics/SVG/1.1/DTD/svg11.dtd">
<svg xmlns="http://www.w3.org/2000/svg" xmlns:xlink="http://www.w3.org/1999/xlink" version="1.1" id="Layer_1"  width="512" height="512" viewBox="0 0 512 512" enable-background="new 0 0 512 512" xml:space="preserve">
<g id="plug">
	<g>
		<rect x="202.934" y="392.297" fill="#656D78" width="106.727" height="119.703"/>
	</g>
	<g>
		<path fill="#434A54" d="M330.723,416.266c0,5.906-4.781,10.688-10.688,10.688h-128.07c-5.906,0-10.688-4.781-10.688-10.688V283.75    c0-5.906,4.781-10.672,10.688-10.672h128.07c5.906,0,10.688,4.766,10.688,10.672V416.266z"/>
	</g>
	<g>
		<path fill="#FFCE54" d="M213.309,184.797V32.023C213.309,14.344,198.965,0,181.277,0c-17.672,0-32.016,14.344-32.016,32.023    v152.773H213.309z"/>
	</g>
	<g>
		<path fill="#FFCE54" d="M362.723,184.797V32.023c0-17.68-14.312-32.023-32-32.023s-32.031,14.344-32.031,32.023v152.773H362.723z"/>
	</g>
	<path opacity="0.2" d="M320.035,384.25c0,5.891,4.781,10.672,10.688,10.672v-21.344   C324.816,373.578,320.035,378.359,320.035,384.25z"/>
	<path opacity="0.2" d="M320.035,405.594c0,5.906,4.781,10.672,10.688,10.672v-21.344   C324.816,394.922,320.035,399.703,320.035,405.594z"/>
	<path opacity="0.2" d="M191.965,405.594c0-5.891-4.781-10.672-10.688-10.672v21.344C187.184,416.266,191.965,411.5,191.965,405.594   z"/>
	<path opacity="0.2" d="M191.965,384.25c0-5.891-4.781-10.672-10.688-10.672v21.344C187.184,394.922,191.965,390.141,191.965,384.25   z"/>
	<g>
		<polygon fill="#656D78" points="394.754,298.859 329.941,362.906 181.277,362.906 117.246,298.859 117.246,128.094     394.754,128.094   "/>
	</g>
	<g>
		<rect x="149.262" y="42.695" fill="#F6BB42" width="64.047" height="21.352"/>
	</g>
	<g>
		<rect x="298.691" y="42.695" fill="#F6BB42" width="64.031" height="21.352"/>
	</g>
	<g>
		<path fill="#434A54" d="M309.66,277.516H202.934c-5.906,0-10.688,4.781-10.688,10.672s4.781,10.672,10.688,10.672H309.66    c5.906,0,10.688-4.781,10.688-10.672S315.566,277.516,309.66,277.516z"/>
		<path fill="#434A54" d="M331.004,234.828h-149.43c-5.891,0-10.672,4.766-10.672,10.672c0,5.891,4.781,10.672,10.672,10.672h149.43    c5.906,0,10.688-4.781,10.688-10.672C341.691,239.594,336.91,234.828,331.004,234.828z"/>
	</g>
</g>
</svg>