<?xml version="1.0" encoding="iso-8859-1"?>
<!-- Uploaded to: SVG Repo, www.svgrepo.com, Generator: SVG Repo Mixer Tools -->
<svg height="800px" width="800px" version="1.1" id="Layer_1" xmlns="http://www.w3.org/2000/svg" xmlns:xlink="http://www.w3.org/1999/xlink" 
	 viewBox="0 0 496 496" xml:space="preserve">
<path style="fill:#AFBCB8;" d="M496,468.8c0,15.2-12,27.2-27.2,27.2H27.2C12,496,0,484,0,468.8V27.2C0,12,12,0,27.2,0h441.6
	C484,0,496,12,496,27.2V468.8z"/>
<path style="fill:#9FAAA7;" d="M0,27.2C0,12,12,0,27.2,0h441.6C484,0,496,12,496,27.2v441.6c0,15.2-12,27.2-27.2,27.2"/>
<path style="fill:#C0CCC7;" d="M440,420c0,12-8.8,20-20,20H76c-11.2,0-20-8.8-20-20V76c0-11.2,8.8-20,20-20h343.2c12,0,20,8.8,20,20
	v344H440z"/>
<path style="fill:#B2BFB8;" d="M56,76c0-11.2,8.8-20,20-20h343.2c12,0,20,8.8,20,20v344c0,12-9.6,19.2-20.8,19.2"/>
<g>
	<path style="fill:#A3B2A9;" d="M384,292c0,12.8-9.6,20-22.4,20H134.4c-12.8,0-22.4-7.2-22.4-20V152.8c0-12.8,9.6-24.8,22.4-24.8
		h227.2c12.8,0,22.4,12,22.4,24.8V292L384,292z"/>
	<path style="fill:#A3B2A9;" d="M360,330.4c0,10.4-11.2,21.6-21.6,21.6H157.6c-10.4,0-21.6-11.2-21.6-21.6V219.2
		c0-10.4,11.2-19.2,21.6-19.2h181.6c10.4,0,21.6,8.8,21.6,19.2v111.2H360z"/>
	<path style="fill:#A3B2A9;" d="M336,381.6c0,8-9.6,10.4-17.6,10.4H177.6c-8,0-17.6-3.2-17.6-10.4v-86.4c0-8,9.6-15.2,17.6-15.2h140
		c8,0,17.6,7.2,17.6,15.2v86.4H336z"/>
</g>
<g>
	<path style="fill:#112827;" d="M384,277.6c0,12.8-9.6,26.4-22.4,26.4H134.4c-12.8,0-22.4-13.6-22.4-26.4V138.4
		c0-12.8,9.6-26.4,22.4-26.4h227.2c12.8,0,22.4,13.6,22.4,26.4V277.6L384,277.6z"/>
	<path style="fill:#112827;" d="M360,316c0,10.4-11.2,20-21.6,20H157.6c-10.4,0-21.6-9.6-21.6-20V204.8c0-10.4,11.2-20.8,21.6-20.8
		h181.6c10.4,0,21.6,10.4,21.6,20.8V316H360z"/>
	<path style="fill:#112827;" d="M336,366.4c0,8-9.6,17.6-17.6,17.6H177.6c-8,0-17.6-9.6-17.6-17.6v-85.6c0-8,9.6-16.8,17.6-16.8h140
		c8,0,17.6,8.8,17.6,16.8v85.6H336z"/>
</g>
<path style="fill:#E8C018;" d="M160,197.6c0,6.4-5.6,12-12,12l0,0c-6.4,0-12-5.6-12-12v-43.2c0-6.4,5.6-12,12-12l0,0
	c6.4,0,12,5.6,12,12V197.6z"/>
<path style="fill:#D3AC07;" d="M160,160v37.6c0,6.4-4,12-12,12l0,0c-6.4,0-12-5.6-12-12"/>
<path style="fill:#E8C018;" d="M208.8,197.6c0,6.4-5.6,12-12,12l0,0c-6.4,0-12-5.6-12-12v-43.2c0-6.4,5.6-12,12-12l0,0
	c6.4,0,12,5.6,12,12V197.6z"/>
<path style="fill:#D3AC07;" d="M208.8,160v37.6c0,6.4-4,12-12,12l0,0c-6.4,0-12-5.6-12-12"/>
<path style="fill:#E8C018;" d="M260,196c0,6.4-5.6,12-12,12l0,0c-6.4,0-12-5.6-12-12v-43.2c0-6.4,5.6-12,12-12l0,0
	c6.4,0,12,5.6,12,12V196z"/>
<path style="fill:#D3AC07;" d="M260,158.4V196c0,6.4-4,12-12,12l0,0c-6.4,0-12-5.6-12-12"/>
<path style="fill:#E8C018;" d="M311.2,196c0,6.4-5.6,12-12,12l0,0c-6.4,0-12-5.6-12-12v-43.2c0-6.4,5.6-12,12-12l0,0
	c6.4,0,12,5.6,12,12V196z"/>
<path style="fill:#D3AC07;" d="M311.2,158.4V196c0,6.4-4,12-12,12l0,0c-6.4,0-12-5.6-12-12"/>
<path style="fill:#E8C018;" d="M360,196c0,6.4-5.6,12-12,12l0,0c-6.4,0-12-5.6-12-12v-43.2c0-6.4,5.6-12,12-12l0,0
	c6.4,0,12,5.6,12,12V196z"/>
<path style="fill:#D3AC07;" d="M360,158.4V196c0,6.4-4,12-12,12l0,0c-6.4,0-12-5.6-12-12"/>
</svg>