<?xml version="1.0" encoding="utf-8"?>
<!-- Uploaded to: SVG Repo, www.svgrepo.com, Generator: SVG Repo Mixer Tools -->
<!DOCTYPE svg PUBLIC "-//W3C//DTD SVG 1.1//EN" "http://www.w3.org/Graphics/SVG/1.1/DTD/svg11.dtd">
<svg xmlns="http://www.w3.org/2000/svg" xmlns:xlink="http://www.w3.org/1999/xlink" version="1.1" id="Layer_1"  width="512" height="512" viewBox="0 0 512 512" enable-background="new 0 0 512 512" xml:space="preserve">
<g id="sata">
	<g>
		<path fill="#434A54" d="M384,32c0,5.891-4.781,10.664-10.656,10.664c-5.906,0-10.688-4.773-10.688-10.664    s4.781-10.664,10.688-10.664C379.219,21.336,384,26.109,384,32z"/>
		<path fill="#434A54" d="M384,74.664c0,5.891-4.781,10.672-10.656,10.672c-5.906,0-10.688-4.781-10.688-10.672    S367.438,64,373.344,64C379.219,64,384,68.773,384,74.664z"/>
		<path fill="#434A54" d="M384,117.336c0,5.891-4.781,10.664-10.656,10.664c-5.906,0-10.688-4.773-10.688-10.664    s4.781-10.672,10.688-10.672C379.219,106.664,384,111.445,384,117.336z"/>
		<path fill="#434A54" d="M384,160c0,5.891-4.781,10.664-10.656,10.664c-5.906,0-10.688-4.773-10.688-10.664    s4.781-10.664,10.688-10.664C379.219,149.336,384,154.109,384,160z"/>
		<path fill="#434A54" d="M384,202.664c0,5.891-4.781,10.672-10.656,10.672c-5.906,0-10.688-4.781-10.688-10.672    S367.438,192,373.344,192C379.219,192,384,196.773,384,202.664z"/>
		<path fill="#434A54" d="M384,245.336c0,5.891-4.781,10.664-10.656,10.664c-5.906,0-10.688-4.773-10.688-10.664    s4.781-10.672,10.688-10.672C379.219,234.664,384,239.445,384,245.336z"/>
	</g>
	<g>
		<path fill="#434A54" d="M149.336,32c0,5.891-4.781,10.664-10.672,10.664S128,37.891,128,32s4.773-10.664,10.664-10.664    S149.336,26.109,149.336,32z"/>
		<path fill="#434A54" d="M149.336,74.664c0,5.891-4.781,10.672-10.672,10.672S128,80.555,128,74.664S132.773,64,138.664,64    S149.336,68.773,149.336,74.664z"/>
		<path fill="#434A54" d="M149.336,117.336c0,5.891-4.781,10.664-10.672,10.664S128,123.227,128,117.336s4.773-10.672,10.664-10.672    S149.336,111.445,149.336,117.336z"/>
		<path fill="#434A54" d="M149.336,160c0,5.891-4.781,10.664-10.672,10.664S128,165.891,128,160s4.773-10.664,10.664-10.664    S149.336,154.109,149.336,160z"/>
		<path fill="#434A54" d="M149.336,202.664c0,5.891-4.781,10.672-10.672,10.672S128,208.555,128,202.664S132.773,192,138.664,192    S149.336,196.773,149.336,202.664z"/>
		<path fill="#434A54" d="M149.336,245.336c0,5.891-4.781,10.664-10.672,10.664S128,251.227,128,245.336s4.773-10.672,10.664-10.672    S149.336,239.445,149.336,245.336z"/>
	</g>
	<g>
		<rect x="192" y="242.219" fill="#ED5564" width="128" height="269.781"/>
	</g>
	<g>
		<rect x="170.664" y="220.891" fill="#434A54" width="170.68" height="99.109"/>
	</g>
	<g>
		<rect x="138.664" fill="#656D78" width="234.68" height="277.328"/>
	</g>
	<g>
		<rect x="170.664" fill="#CCD1D9" width="170.68" height="85.336"/>
	</g>
	<g>
		<rect x="192" y="42.664" fill="#E6E9ED" width="128" height="149.336"/>
	</g>
	<path fill="#E6E9ED" d="M234.664,42.664c0,5.891-4.773,10.672-10.664,10.672s-10.664-4.781-10.664-10.672S218.109,32,224,32   S234.664,36.773,234.664,42.664z"/>
	<path fill="#E6E9ED" d="M298.656,42.664c0,5.891-4.766,10.672-10.656,10.672s-10.656-4.781-10.656-10.672S282.109,32,288,32   S298.656,36.773,298.656,42.664z"/>
</g>
</svg>